<?xml version="1.0" encoding="UTF-8"?>
<svg width="51px" height="51px" viewBox="0 0 51 51" version="1.1" xmlns="http://www.w3.org/2000/svg" xmlns:xlink="http://www.w3.org/1999/xlink">
    <!-- Generator: Sketch 42 (36781) - http://www.bohemiancoding.com/sketch -->
    <title>Combined Shape</title>
    <desc>Created with Sketch.</desc>
    <defs></defs>
    <g id="Page-1" stroke="none" stroke-width="1" fill="none" fill-rule="evenodd">
        <g id="Artboard" transform="translate(-24.000000, -31.000000)" fill="#FFFFFF">
            <path d="M33.1084585,58.8319337 L33.4419863,55.0196925 C33.553415,53.7460572 34.6838675,52.7962594 35.9660326,52.9084343 C36.8510813,52.985866 37.5710533,53.5394897 37.9003556,54.2917936 C38.2900227,53.4048781 39.2160179,52.8189793 40.2384935,52.9084343 C41.5295975,53.0213913 42.4694048,54.1477232 42.3575776,55.4259138 L41.9228709,60.3946344 C42.6850646,60.4797834 43.482135,60.5568273 44.3106091,60.6223224 C44.4395428,58.7373447 45.0877845,57.0465996 46.8797071,56.6472024 C47.8615798,55.7231753 47.0094947,51.9705118 45.1125369,47.7507807 C43.2155791,43.5310496 40.3396732,38.946751 41.4085931,32.8990975 C41.4898902,32.4391407 41.5883138,32.0047306 41.70243,31.5949576 L25.2974409,31.5949576 C24.7461977,31.5949576 24.298672,32.0421217 24.298672,32.5937266 L24.298672,80.5961867 C24.298672,81.1474299 24.7458361,81.5949556 25.2974409,81.5949556 L73.299903,81.5949556 C73.8511462,81.5949556 74.298672,81.1477915 74.298672,80.5961867 L74.298672,32.5937266 C74.298672,32.0424834 73.8515079,31.5949576 73.299903,31.5949576 L57.1079758,31.5949576 C57.2229848,32.0209012 57.2842646,32.4572114 57.2842646,32.8990975 C57.2842646,39.5198192 50.8531181,56.3112177 52.9931026,56.6472024 C54.4005389,56.8681747 56.9595328,59.0326608 57.2633996,60.4886382 C57.6076903,60.453999 57.9450444,60.4175281 58.2752057,60.3795245 L57.8418141,55.4259138 C57.7303854,54.1522784 58.6787332,53.0206092 59.9608982,52.9084343 C60.991781,52.8182437 61.9142917,53.4031785 62.3012016,54.2932672 C62.6326276,53.5411024 63.3545887,52.9853167 64.2333591,52.9084343 C65.5244632,52.7954773 66.6455782,53.7415019 66.7574054,55.0196925 L67.0828099,58.7390829 C67.4403387,58.639617 67.6273117,58.5802943 67.6273117,58.5802943 C69.2375255,58.1743379 70.5346751,59.1539044 70.5346751,60.8066195 L70.5346751,62.840272 C70.5346751,63.3818998 70.1086543,63.9526583 69.5831309,64.0985376 C69.5831309,64.0985376 68.8611008,64.3141877 67.5977778,64.6251931 L68.1635131,71.0915771 C68.2749417,72.3652124 67.326594,73.4968816 66.0444289,73.6090566 C65.0135462,73.6992471 64.0910354,73.1143123 63.7041256,72.2242236 C63.3726995,72.9763884 62.6507384,73.5321741 61.771968,73.6090566 C60.4808639,73.7220135 59.359749,72.775989 59.2479218,71.4977983 L58.7907791,66.2726333 C57.4386684,66.4491685 56.0072068,66.6001638 54.5254664,66.7062692 C54.263227,67.9846284 53.6538539,69.3000258 52.2378278,68.5104583 C51.9591745,69.2898508 50.0118339,69.3277841 49.7968754,67.9772998 C49.3024632,68.9901725 47.4014678,68.5104583 47.2335723,67.5613639 C45.9763526,68.5104583 45.3380154,67.2798241 45.1125369,66.6794847 C45.1114501,66.6765911 45.1103144,66.6735146 45.1091309,66.670257 C43.8335125,66.5709648 42.592815,66.4400916 41.4071035,66.2898833 L40.9514699,71.4977983 C40.8400413,72.7714337 39.7095887,73.7212315 38.4274237,73.6090566 C37.5423749,73.5316248 36.822403,72.9780011 36.4931007,72.2256972 C36.1034335,73.1126128 35.1774384,73.6985116 34.1549628,73.6090566 C32.8638587,73.4960996 31.9240514,72.3697677 32.0358786,71.0915771 L32.5943987,64.7076633 C31.0621575,64.3501495 30.1680322,64.0932707 30.1680322,64.0932707 C29.6362154,63.9534253 29.20207,63.3893136 29.20207,62.840272 L29.20207,60.8066195 C29.20207,59.1502107 30.4998744,58.1466574 32.1007973,58.5568703 C32.1007973,58.5568703 32.4522493,58.6639919 33.1084585,58.8319337 Z" id="Combined-Shape" transform="translate(49.298672, 56.594957) scale(1, -1) translate(-49.298672, -56.594957) "></path>
        </g>
    </g>
</svg>